<svg viewBox="0 0 187 115" fill="none" xmlns="http://www.w3.org/2000/svg">
<path d="M67.3545 81.6152C65.7627 81.6152 64.5762 81.2686 63.7949 80.5752C63.0234 79.8721 62.6377 78.793 62.6377 77.3379L62.6523 76.9717H64.9961C65.0059 77.8896 65.2012 78.5586 65.582 78.9785C65.9629 79.3984 66.5439 79.6084 67.3252 79.6084C68.9268 79.6084 69.7275 78.5293 69.7275 76.3711V59.8916H72.2764V76.3418C72.2764 78.1191 71.8613 79.4424 71.0312 80.3115C70.2109 81.1807 68.9854 81.6152 67.3545 81.6152ZM80.5234 78.1875H83.8193V81.293H80.5234V78.1875ZM89.9717 59.8916H92.374L96.5635 78.1582H96.9883L97.8379 74.0273L101.119 59.8916H104.415L107.682 74.0566L108.561 78.1729H108.985L113.16 59.8916H115.562L110.406 81H107.271L103.097 62.9092H102.584L98.248 81H95.1133L89.9717 59.8916ZM128.043 81.3369C126.393 81.3369 125.069 81.0781 124.073 80.5605C123.087 80.043 122.364 79.2227 121.905 78.0996C121.456 76.9668 121.231 75.4629 121.231 73.5879C121.231 71.7129 121.456 70.2139 121.905 69.0908C122.364 67.9678 123.087 67.1475 124.073 66.6299C125.069 66.1123 126.393 65.8535 128.043 65.8535C129.713 65.8535 131.046 66.1123 132.042 66.6299C133.038 67.1377 133.766 67.9531 134.225 69.0762C134.684 70.1895 134.913 71.6787 134.913 73.5439C134.913 75.4287 134.684 76.9375 134.225 78.0703C133.766 79.2031 133.038 80.0332 132.042 80.5605C131.046 81.0781 129.713 81.3369 128.043 81.3369ZM128.131 79.5059C129.293 79.5059 130.191 79.3252 130.826 78.9639C131.471 78.6025 131.93 78.002 132.203 77.1621C132.477 76.3223 132.613 75.1406 132.613 73.6172C132.613 72.084 132.472 70.8975 132.188 70.0576C131.905 69.208 131.437 68.6025 130.782 68.2412C130.138 67.8701 129.225 67.6846 128.043 67.6846C126.881 67.6846 125.978 67.8701 125.333 68.2412C124.688 68.6025 124.225 69.2129 123.941 70.0723C123.668 70.9219 123.531 72.1133 123.531 73.6465C123.531 75.1602 123.673 76.3369 123.956 77.1768C124.239 78.0068 124.708 78.6025 125.362 78.9639C126.017 79.3252 126.939 79.5059 128.131 79.5059ZM142.765 59.8916H145.006V81H142.765V59.8916ZM154.806 67.9775H152.14V66.1904H154.806V64.374C154.806 63.1924 154.938 62.2744 155.201 61.6201C155.475 60.9658 155.924 60.4971 156.549 60.2139C157.174 59.9307 158.048 59.7891 159.171 59.7891C159.708 59.7891 160.299 59.8428 160.943 59.9502V61.7666C160.24 61.6885 159.669 61.6494 159.229 61.6494C158.673 61.6494 158.238 61.708 157.926 61.8252C157.613 61.9326 157.389 62.1182 157.252 62.3818C157.125 62.6455 157.062 63.0117 157.062 63.4805V66.1904H160.694V67.9775H157.047V81H154.806V67.9775ZM173.028 84.8672C172.159 84.8184 171.456 84.7354 170.919 84.6182C170.382 84.501 169.913 84.3105 169.513 84.0469C169.112 83.7832 168.731 83.4023 168.37 82.9043C167.95 82.3184 167.638 81.4199 167.433 80.209C167.228 78.998 167.101 77.7383 167.052 76.4297C167.003 75.1211 166.979 73.6025 166.979 71.874V71.2734C166.979 68.7832 167.062 66.6055 167.228 64.7402C167.403 62.8652 167.784 61.5176 168.37 60.6973C168.731 60.1992 169.112 59.8184 169.513 59.5547C169.913 59.291 170.382 59.1006 170.919 58.9834C171.456 58.8662 172.159 58.7832 173.028 58.7344V60.5361C172.208 60.5361 171.578 60.6582 171.139 60.9023C170.699 61.1367 170.353 61.5908 170.099 62.2646C169.806 63.0557 169.61 64.3105 169.513 66.0293C169.425 67.748 169.381 69.623 169.381 71.6543C169.381 73.7734 169.425 75.7217 169.513 77.499C169.61 79.2666 169.806 80.5459 170.099 81.3369C170.274 81.8057 170.489 82.1621 170.743 82.4062C170.997 82.6602 171.305 82.8311 171.666 82.9189C172.027 83.0166 172.481 83.0654 173.028 83.0654V84.8672ZM179.312 83.0654C179.859 83.0654 180.313 83.0166 180.675 82.9189C181.036 82.8311 181.344 82.6602 181.598 82.4062C181.852 82.1621 182.066 81.8057 182.242 81.3369C182.535 80.5459 182.726 79.2666 182.813 77.499C182.911 75.7217 182.96 73.7734 182.96 71.6543C182.96 69.623 182.911 67.748 182.813 66.0293C182.726 64.3105 182.535 63.0557 182.242 62.2646C181.988 61.5908 181.642 61.1367 181.202 60.9023C180.763 60.6582 180.133 60.5361 179.312 60.5361V58.7344C180.182 58.7832 180.885 58.8662 181.422 58.9834C181.959 59.1006 182.428 59.291 182.828 59.5547C183.229 59.8184 183.609 60.1992 183.971 60.6973C184.391 61.2832 184.703 62.1816 184.908 63.3926C185.113 64.5938 185.24 65.834 185.289 67.1133C185.338 68.3828 185.362 69.8281 185.362 71.4492V72.0938C185.362 74.7207 185.279 76.9766 185.113 78.8613C184.947 80.7363 184.566 82.084 183.971 82.9043C183.609 83.4023 183.229 83.7832 182.828 84.0469C182.428 84.3105 181.959 84.501 181.422 84.6182C180.885 84.7354 180.182 84.8184 179.312 84.8672V83.0654Z" fill="white"/>
<path d="M0.0932007 58.9472C6.59933 21.7121 35.8352 14.9056 49.6399 16.1568V0.391968L62.6522 18.5341H63.528L74.9137 23.0383L78.2919 27.4174C77.7915 27.7177 90.4284 33.7985 96.8094 36.8013L91.4293 45.0591H62.0266C55.7206 47.5614 49.1394 57.5292 46.6371 62.2002C43.0337 95.8319 67.3232 108.327 79.9185 110.371C50.791 114.274 38.9215 96.2323 36.6276 86.7234C33.5247 92.5288 36.5025 107.993 38.3793 115C20.062 97.3834 30.622 72.7935 38.2542 63.0761C27.444 71.0836 23.532 89.7679 22.8647 97.7337C16.859 86.323 21.1964 72.3765 24.1158 66.8296C17.4095 73.1355 13.4808 85.3053 12.3548 90.602C4.24712 67.28 14.0647 48.4373 19.987 41.9311C11.8793 43.0322 3.34627 53.7339 0.0932007 58.9472Z" fill="url(#paint0_linear_104_30)"/>
<path d="M71.4104 24.2895H69.1583L68.6578 25.0402H70.2844L72.4114 26.4165H74.0379L71.4104 24.2895Z" fill="url(#paint1_linear_104_30)"/>
<defs>
<linearGradient id="paint0_linear_104_30" x1="87.4255" y1="2.39385" x2="4.09698" y2="11.7777" gradientUnits="userSpaceOnUse">
<stop stop-color="#FF9838"/>
<stop offset="1" stop-color="#E16C00"/>
</linearGradient>
<linearGradient id="paint1_linear_104_30" x1="73.5159" y1="24.3267" x2="69.3019" y2="25.7491" gradientUnits="userSpaceOnUse">
<stop stop-color="#040404"/>
<stop offset="1" stop-color="#E10000"/>
</linearGradient>
</defs>
</svg>
